<?xml version="1.0" standalone="no"?>
<!DOCTYPE svg PUBLIC "-//W3C//DTD SVG 20010904//EN"
 "http://www.w3.org/TR/2001/REC-SVG-20010904/DTD/svg10.dtd">
<svg version="1.0" xmlns="http://www.w3.org/2000/svg"
 width="500.000000pt" height="500.000000pt" viewBox="0 0 500.000000 500.000000"
 preserveAspectRatio="xMidYMid meet">
<metadata>
Created by potrace 1.11, written by Peter Selinger 2001-2013
</metadata>
<g transform="translate(0.000000,500.000000) scale(0.100000,-0.100000)"
fill="#000000" stroke="none">
<path d="M2329 4466 c-2 -2 -43 -6 -91 -10 -142 -10 -425 -55 -475 -76 -36
-15 -108 -172 -157 -342 -76 -263 -76 -626 -1 -983 14 -66 31 -144 37 -173 6
-29 15 -51 19 -50 5 2 36 37 70 78 392 482 1097 1029 1624 1260 66 29 122 54
123 56 6 4 -75 53 -148 91 -141 71 -335 121 -559 143 -97 9 -433 14 -442 6z"/>
<path d="M1417 4170 c-343 -198 -669 -671 -873 -1265 -19 -54 -34 -105 -34
-113 0 -7 19 -41 41 -75 160 -239 388 -429 694 -577 139 -68 505 -200 553
-200 7 0 1 26 -15 68 -80 209 -176 556 -213 777 -5 28 -16 88 -24 135 -8 47
-17 108 -21 135 -3 28 -8 64 -10 80 -10 76 -15 125 -20 190 -3 39 -8 86 -11
105 -10 56 -12 468 -4 545 5 39 11 99 14 135 4 36 9 73 12 83 8 26 -13 20 -89
-23z"/>
<path d="M3617 4094 c-1 -1 -25 -4 -53 -8 -269 -32 -560 -157 -831 -359 -54
-40 -105 -80 -113 -88 -8 -8 -31 -27 -50 -43 -65 -53 -210 -190 -210 -198 0
-4 3 -7 8 -6 7 2 154 -19 189 -27 24 -6 153 -35 176 -40 10 -2 52 -14 95 -25
42 -12 85 -23 94 -25 87 -18 512 -171 655 -236 23 -10 45 -19 48 -19 13 0 339
-163 440 -220 120 -68 257 -158 348 -228 32 -24 61 -41 65 -38 8 9 8 156 -1
236 -17 148 -94 375 -193 571 -48 94 -174 306 -203 341 -6 7 -38 50 -70 95
-33 45 -68 92 -79 105 -192 229 -179 218 -252 215 -34 -1 -62 -3 -63 -3z"/>
<path d="M3221 3028 c68 -171 160 -492 203 -713 4 -16 9 -41 11 -55 13 -66 42
-240 51 -310 3 -19 7 -46 9 -59 2 -13 7 -61 11 -105 3 -45 8 -90 10 -101 9
-40 18 -254 18 -405 0 -180 -10 -337 -29 -447 -5 -28 -4 -28 48 -2 267 136
531 447 740 874 55 113 167 385 167 407 0 8 4 18 8 24 5 5 14 29 21 53 12 42
12 45 -25 100 -76 116 -164 217 -267 309 -48 43 -184 144 -222 166 -16 10 -52
30 -80 46 -154 89 -358 173 -587 241 -53 16 -100 29 -103 29 -2 0 5 -24 16
-52z"/>
<path d="M518 2483 c-5 -21 -1 -202 7 -253 2 -19 6 -48 8 -65 2 -16 8 -46 13
-65 4 -19 7 -38 6 -42 -1 -5 3 -8 10 -8 6 0 9 -3 5 -6 -6 -6 20 -102 32 -119
4 -5 19 -37 32 -70 23 -58 25 -65 28 -84 0 -5 7 -16 15 -23 19 -20 68 -118 59
-118 -5 0 -3 -4 3 -8 19 -12 64 -99 56 -107 -4 -5 -1 -5 6 -1 11 6 17 -5 13
-26 0 -5 4 -8 10 -8 5 0 7 -4 4 -10 -3 -5 -1 -10 4 -10 6 0 11 -5 11 -11 0 -7
8 -19 18 -28 22 -19 47 -62 44 -74 -1 -5 1 -6 6 -3 10 6 37 -43 33 -59 -2 -5
1 -7 4 -3 4 4 34 -27 66 -70 83 -109 107 -139 164 -201 78 -85 84 -91 103 -92
56 -5 138 -3 142 2 3 4 30 9 60 12 110 13 317 76 438 135 34 17 62 27 62 24 0
-4 4 -2 8 3 4 6 39 29 78 52 39 23 76 49 84 57 7 9 19 16 26 16 8 0 14 5 14
10 0 6 5 10 11 10 6 0 17 6 24 13 23 19 38 31 70 51 17 11 39 27 50 37 11 10
33 29 49 43 16 14 33 26 38 26 5 0 6 5 3 10 -3 6 1 10 9 10 8 0 20 9 26 21 7
11 14 19 16 16 3 -3 26 15 51 39 26 24 51 40 57 37 6 -3 8 -2 3 2 -4 5 7 24
25 42 17 18 30 34 27 37 -2 2 -29 7 -59 11 -30 4 -66 9 -80 11 -14 2 -43 8
-66 13 -22 6 -60 13 -83 16 -24 3 -47 8 -52 11 -5 3 -22 8 -37 10 -44 8 -213
54 -231 63 -9 5 -34 12 -56 16 -22 5 -45 9 -51 11 -6 1 -51 18 -100 37 -150
59 -202 76 -208 70 -3 -4 -6 -2 -6 4 0 5 -19 15 -42 22 -24 7 -69 26 -100 42
-32 16 -58 26 -58 23 0 -4 -7 -1 -15 6 -8 7 -15 9 -15 4 0 -5 -4 -4 -8 1 -4 6
-38 24 -77 40 -38 16 -76 35 -83 42 -7 7 -18 13 -23 13 -12 0 -67 27 -124 60
-22 12 -60 34 -85 48 -25 13 -74 40 -110 60 -36 20 -74 44 -84 54 -11 10 -24
18 -28 18 -5 0 -6 5 -2 12 4 7 3 8 -5 4 -12 -8 -40 10 -152 101 -72 57 -84 62
-91 36z"/>
<path d="M3328 2181 c-9 -11 -33 -42 -54 -70 -21 -28 -42 -51 -46 -51 -4 0 -8
-6 -8 -14 0 -7 -11 -25 -25 -40 -14 -15 -25 -32 -25 -37 0 -6 -4 -7 -10 -4 -5
3 -10 2 -10 -3 0 -5 -17 -27 -37 -49 -21 -22 -59 -63 -85 -91 -26 -27 -49 -47
-52 -44 -3 3 -6 0 -6 -6 0 -14 -50 -66 -79 -81 -12 -7 -19 -16 -16 -22 4 -5
-3 -9 -15 -9 -12 0 -19 -4 -16 -9 3 -5 -4 -11 -15 -14 -12 -3 -18 -10 -14 -17
4 -6 1 -9 -7 -8 -7 2 -12 -3 -10 -10 1 -8 -2 -11 -8 -7 -5 3 -10 1 -10 -5 0
-6 -5 -8 -12 -4 -7 5 -9 2 -5 -9 4 -11 2 -14 -8 -10 -8 3 -18 -2 -21 -11 -3
-9 -13 -16 -21 -16 -8 0 -11 -5 -7 -12 5 -8 2 -9 -10 -5 -10 4 -15 3 -11 -3 3
-5 -7 -17 -22 -27 -15 -9 -38 -28 -50 -40 -12 -13 -26 -23 -30 -23 -5 0 -20
-11 -35 -25 -15 -14 -30 -25 -34 -25 -4 0 -15 -10 -25 -22 -11 -11 -19 -18
-19 -13 0 4 -19 -9 -42 -29 -56 -48 -41 -37 -209 -149 -81 -53 -151 -97 -156
-97 -6 0 -16 -7 -23 -15 -7 -9 -15 -13 -17 -11 -3 3 -34 -13 -69 -35 -85 -52
-224 -121 -224 -112 0 5 -4 4 -8 -2 -4 -5 -39 -21 -79 -34 -39 -14 -70 -28
-68 -32 3 -4 -1 -7 -8 -6 -52 2 -63 -20 -23 -46 13 -9 29 -22 37 -29 18 -18
109 -70 109 -63 0 3 10 -1 23 -10 13 -8 27 -12 30 -8 4 3 7 1 7 -5 0 -7 6 -12
14 -12 8 0 27 -5 43 -12 41 -16 45 -18 83 -24 19 -4 40 -10 45 -14 6 -4 35
-13 65 -19 193 -39 646 -48 870 -16 193 27 341 53 386 68 41 14 98 153 152
372 25 99 30 130 47 256 10 82 6 283 -11 439 -2 25 -6 74 -8 110 -2 36 -12 99
-21 140 -9 41 -19 86 -21 100 -3 14 -7 31 -10 39 -2 8 -7 30 -10 50 -8 51 -25
66 -46 42z"/>
</g>
</svg>
